<mxfile host="app.diagrams.net" modified="2023-09-18T00:37:10.270Z" agent="Mozilla/5.0 (Windows NT 10.0; Win64; x64) AppleWebKit/537.36 (KHTML, like Gecko) Chrome/116.0.0.0 Safari/537.36 OPR/102.0.0.0 (Edition Yx GX)" version="21.7.5" etag="Pn_Sb3BICKtskai4gySF" type="github">
  <diagram name="Страница — 1" id="4I8XnNZJ6NUFaT71NB_2">
    <mxGraphModel>
      <root>
        <mxCell id="0" />
        <mxCell id="1" parent="0" />
      </root>
    </mxGraphModel>
  </diagram>
</mxfile>
